<svg width="23" height="46" viewBox="0 0 23 46" fill="none" xmlns="http://www.w3.org/2000/svg">
<path d="M7.804 9.656H15.124V11.216H7.804V9.656ZM13.3 14.312H17.548V13.232H13.3V12.176H16.732V8.672H6.292V12.176H11.716V13.232H5.188V14.312H11.716V15.752H7.348C7.42 15.416 7.492 15.056 7.54 14.696L6.172 14.552C6.028 15.512 5.764 16.592 5.524 17.384L6.892 17.528C6.964 17.336 7.012 17.12 7.084 16.88H11.716V18.632H13.3V16.88H18.34V15.752H13.3V14.312ZM14.644 5.216V6.656H10.348C10.492 6.224 10.66 5.72 10.804 5.216H14.644ZM16.156 6.656V4.184H11.116C11.236 3.8 11.332 3.392 11.428 3.032L9.916 2.84C9.82 3.272 9.7 3.728 9.556 4.184H6.1V5.216H9.244C9.076 5.72 8.932 6.224 8.764 6.656H4.66V7.736H18.412V6.656H16.156ZM3.244 19.208V2.6H19.708V19.208H3.244ZM1.54 0.967999V21.824H3.244V20.816H19.708V21.824H21.46V0.967999H1.54ZM18.244 28.928V31.064H12.988V28.928H18.244ZM12.988 38.384V36.152H18.244V38.384H12.988ZM18.244 34.712H12.988V32.504H18.244V34.712ZM11.308 38.384H8.428V40.016H22.42V38.384H19.972V28.928H22.228V27.296H19.972V23.936H18.244V27.296H12.988V23.936H11.308V27.296H8.932V28.928H11.308V38.384ZM8.572 35.528C8.14 34.808 6.292 31.928 5.62 31.016V30.2H8.404V28.52H5.62V23.912H3.94V28.52H0.724V30.2H3.748C3.052 33.464 1.636 37.256 0.172 39.248C0.508 39.704 0.94 40.472 1.132 41C2.164 39.44 3.196 36.944 3.94 34.328V45.824H5.62V33.344C6.292 34.592 7.108 36.08 7.42 36.872L8.572 35.528ZM12.676 40.448C11.668 41.96 9.844 43.64 8.044 44.696C8.428 44.984 8.932 45.512 9.22 45.872C11.068 44.696 12.964 43.016 14.188 41.312L12.676 40.448ZM16.828 41.408C18.388 42.728 20.284 44.624 21.148 45.848L22.564 44.816C21.628 43.592 19.732 41.768 18.172 40.496L16.828 41.408Z" fill="white"/>
</svg>
